<?xml version="1.0" standalone="no"?>
<!DOCTYPE svg PUBLIC "-//W3C//DTD SVG 20010904//EN"
 "http://www.w3.org/TR/2001/REC-SVG-20010904/DTD/svg10.dtd">
<svg version="1.0" xmlns="http://www.w3.org/2000/svg"
 width="512.000000pt" height="512.000000pt" viewBox="0 0 512.000000 512.000000"
 preserveAspectRatio="xMidYMid meet">

<g transform="translate(0.000000,512.000000) scale(0.100000,-0.100000)"
fill="#59E4A7" stroke="none">
<path d="M2780 4054 c-36 -7 -94 -28 -130 -46 -84 -40 -204 -160 -243 -240
-59 -124 -57 -83 -57 -1165 0 -1079 2 -1036 -55 -1081 -57 -45 -158 -20 -183
45 -6 16 -48 395 -92 843 -44 448 -85 835 -91 859 -28 121 -129 250 -238 306
-186 94 -406 56 -551 -96 -71 -74 -95 -134 -161 -395 -33 -131 -65 -256 -70
-276 l-10 -38 -158 0 c-146 0 -161 -2 -202 -23 -24 -13 -57 -43 -74 -66 -27
-39 -30 -50 -30 -120 0 -68 3 -82 27 -117 15 -21 44 -50 65 -64 35 -24 42 -25
232 -28 228 -4 287 7 380 69 120 80 146 132 236 484 l72 280 31 3 c26 3 32 -1
36 -20 3 -13 42 -387 86 -832 44 -445 85 -829 91 -855 44 -182 209 -347 394
-396 76 -19 201 -19 279 1 185 48 342 205 390 390 14 54 16 181 16 1050 0 977
0 988 21 1030 37 78 139 94 196 31 12 -12 23 -31 27 -42 3 -11 42 -341 86
-733 44 -392 85 -732 91 -755 19 -71 59 -139 121 -203 182 -190 483 -194 671
-8 70 68 95 118 163 319 l61 180 175 5 c166 5 176 6 211 30 21 14 50 43 65 64
24 35 27 49 27 116 0 67 -3 81 -27 116 -15 21 -44 50 -65 64 -36 24 -41 25
-245 28 -240 4 -276 -3 -376 -67 -102 -67 -140 -128 -214 -352 -47 -143 -69
-195 -85 -206 -26 -17 -60 -9 -67 15 -3 10 -42 341 -86 737 -44 396 -87 745
-96 775 -55 190 -220 345 -411 385 -84 18 -148 18 -233 -1z"/>
</g>
</svg>
